<?xml version="1.0" encoding="UTF-8"?>
<svg id="Layer_1" data-name="Layer 1" xmlns="http://www.w3.org/2000/svg" viewBox="0 0 1287.352 362.35">
  <path d="M142.28,9.511h-44.065C47.175,9.511,17.059,26.946,11.352,55.161h-3.17V6.34h169.287L35.445,227.618h49.138c51.04,0,81.156-17.437,86.862-45.65h3.17v48.82H.257L142.28,9.511Z"/>
  <path d="M318.857,39.31c0-25.678-29.8-36.14-55.478-36.14-30.117,0-59.282,10.462-59.282,36.774,0,12.046,9.828,17.436,12.681,14.583,3.17,9.51-7.292,18.387-17.753,18.387-13.632,0-22.825-11.73-22.825-25.361,0-31.385,37.408-47.553,87.18-47.553,35.823,0,82.424,14.9,82.424,39.944,0,51.04-159.459,4.755-159.459,128.709,0,32.969,20.923,58.014,51.991,58.014,34.238,0,77.669-35.189,77.669-127.441,0-6.974-.634-14.266-5.389-15.534,0-1.902,3.487-4.438,8.56-4.438,23.142,0,25.995,24.094,25.995,49.455,0,28.214.317,32.97.317,66.573,0,26.629,15.534,32.336,24.094,32.336v3.17h-22.508c-16.802,0-30.117-15.534-30.117-39.311v-54.209c-11.413,54.526-32.336,99.859-87.813,99.859-40.896,0-70.695-29.482-70.695-70.377,0-111.59,160.411-75.133,160.411-127.441Z"/>
  <path d="M315.688,6.34h38.993c14.266,0,22.825,12.998,26.629,25.361,16.802,54.527,27.263,90.984,46.918,152.485,5.706,17.753,13.949,26.312,23.142,27.58,16.168-50.723,29.8-93.202,41.529-133.463,7.291-25.361,13.948-68.792-21.557-68.792h-6.975v-3.17h83.375v3.17h-5.39c-21.874,0-37.407,42.48-43.431,61.818-15.534,49.772-31.068,101.128-51.674,165.799-8.56,24.411-44.382,125.222-72.914,125.222h-42.797v-3.17c38.676,0,96.056-70.378,111.907-122.052-8.243-.316-28.849-6.974-43.749-52.941-16.802-52.308-26.629-86.545-39.944-129.343-6.023-19.338-13.632-45.333-36.457-45.333h-7.608v-3.17Z"/>
  <path d="M538.869,142.657v-48.187c0-62.452-1.902-84.96-29.165-84.96v-3.17h36.14c25.995,0,65.622-6.34,83.692-6.34,28.215,0,84.644,4.121,84.644,70.695v71.962c0,62.452,1.902,84.961,29.165,84.961v3.17h-85.594v-3.17c27.263,0,29.165-22.509,29.165-84.961,0-9.51-.316-65.305-.316-65.305,0-71.012-49.772-72.914-71.329-72.914-16.168,0-33.921,3.804-49.138,9.193v129.025c0,62.452,1.902,84.961,29.166,84.961v3.17h-85.595v-3.17c27.263,0,29.165-22.509,29.165-84.961Z"/>
  <path d="M721.154,118.564c0-65.306,40.578-118.564,108.736-118.564s109.371,53.259,109.371,118.564-41.213,118.563-109.371,118.563-108.736-53.258-108.736-118.563ZM829.891,233.324c49.138,0,82.424-45.017,82.424-114.76S879.028,3.804,829.891,3.804s-81.79,45.016-81.79,114.76,32.652,114.76,81.79,114.76Z"/>
  <path d="M891.712,6.34h38.993c14.266,0,22.825,12.998,26.629,25.361,16.803,54.527,27.264,90.984,46.919,152.485,5.706,17.753,13.948,26.312,23.142,27.58,16.168-50.723,29.8-93.202,41.529-133.463,7.292-25.361,13.949-68.792-21.557-68.792h-6.975v-3.17h83.375v3.17h-5.389c-21.874,0-37.408,42.48-43.432,61.818-15.533,49.772-31.067,101.128-51.674,165.799,0,0-28.531,6.023-47.552-52.941-16.802-52.308-26.63-86.545-39.944-129.343-6.023-19.338-13.632-45.333-36.457-45.333h-7.608v-3.17Z"/>
  <path d="M1236.629,39.31c0-25.678-29.8-36.14-55.479-36.14-30.116,0-59.281,10.462-59.281,36.774,0,12.046,9.827,17.436,12.68,14.583,3.171,9.51-7.291,18.387-17.752,18.387-13.632,0-22.826-11.73-22.826-25.361,0-31.385,37.408-47.553,87.18-47.553,35.823,0,82.425,14.9,82.425,39.944,0,51.04-159.46,4.755-159.46,128.709,0,32.969,20.924,58.014,51.991,58.014,34.237,0,77.669-35.189,77.669-127.441,0-6.974-.634-14.266-5.389-15.534,0-1.902,3.486-4.438,8.559-4.438,23.143,0,25.996,24.094,25.996,49.455,0,28.214.316,32.97.316,66.573,0,26.629,15.534,32.336,24.094,32.336v3.17h-22.509c-16.802,0-30.116-15.534-30.116-39.311v-54.209c-11.412,54.526-32.336,99.859-87.813,99.859-40.896,0-70.694-29.482-70.694-70.377,0-111.59,160.41-75.133,160.41-127.441Z"/>
</svg>